<?xml version="1.0" standalone="no"?>
<!DOCTYPE svg PUBLIC "-//W3C//DTD SVG 20010904//EN"
 "http://www.w3.org/TR/2001/REC-SVG-20010904/DTD/svg10.dtd">
<svg version="1.0" xmlns="http://www.w3.org/2000/svg"
 width="1246.000000pt" height="1280.000000pt" viewBox="0 0 1246.000000 1280.000000"
 preserveAspectRatio="xMidYMid meet">
<metadata>
Created by potrace 1.15, written by Peter Selinger 2001-2017
</metadata>
<g transform="translate(0.000000,1280.000000) scale(0.100000,-0.100000)"
fill="#000000" stroke="none">
<path d="M3520 12784 c-73 -19 -158 -78 -198 -138 -64 -95 -63 -88 -60 -777
l3 -624 28 -56 c33 -69 99 -132 175 -167 l57 -27 378 -3 377 -3 0 -919 0 -920
-1761 -2 -1762 -3 -153 -445 c-84 -245 -173 -503 -198 -575 -24 -71 -122 -355
-217 -630 -94 -275 -174 -516 -177 -535 -11 -70 -6 -155 11 -186 24 -47 76
-95 127 -118 35 -16 71 -21 168 -24 l122 -4 0 -442 c0 -490 2 -508 63 -588 22
-29 55 -55 100 -78 l68 -34 179 -4 180 -4 2 -2497 3 -2496 52 -3 c29 -2 53 -7
53 -12 0 -4 -36 -110 -80 -236 -44 -125 -80 -229 -80 -231 0 -1 160 -3 355 -3
195 0 355 3 355 7 0 4 -36 109 -80 234 -44 125 -80 230 -80 233 0 3 32 6 70 6
l70 0 0 2500 0 2500 100 0 100 0 2 -1722 3 -1723 53 -3 c28 -2 52 -5 52 -6 0
-2 -31 -93 -70 -201 -38 -108 -70 -199 -70 -201 0 -2 135 -4 300 -4 165 0 300
3 300 6 0 4 -118 341 -137 391 -3 8 14 13 59 15 l63 3 3 1725 2 1725 355 -3
355 -2 0 -1530 0 -1530 40 0 c25 0 40 -5 40 -12 0 -7 -31 -95 -69 -195 -38
-100 -66 -185 -63 -188 8 -7 622 -6 622 1 0 4 -32 91 -70 195 -38 103 -70 191
-70 194 0 4 25 5 55 3 l55 -3 0 922 0 921 68 23 c37 12 73 24 80 27 9 3 12
-64 12 -317 l0 -321 40 0 c22 0 40 -3 40 -7 0 -3 -25 -75 -55 -158 -30 -84
-55 -158 -55 -164 0 -13 516 -16 523 -4 3 5 -22 80 -54 168 -32 88 -59 161
-59 163 0 1 23 2 50 2 l50 0 0 399 0 399 63 20 c34 11 186 61 337 110 514 169
1255 410 1368 447 l113 37 187 -55 c103 -31 390 -115 637 -187 248 -73 545
-160 660 -194 l210 -62 3 -457 2 -457 45 0 c25 0 45 -4 45 -9 0 -5 -26 -79
-59 -164 -32 -86 -56 -159 -53 -162 3 -3 124 -5 269 -5 l264 0 -7 23 c-3 12
-31 87 -60 166 -30 79 -54 145 -54 147 0 2 22 4 50 4 l50 0 2 384 3 383 47
-14 48 -14 2 -996 3 -997 51 3 c29 1 54 -1 57 -6 3 -4 -24 -86 -59 -182 -35
-95 -66 -182 -69 -192 -6 -18 4 -19 304 -19 258 0 311 2 311 14 0 7 -29 91
-65 186 -36 95 -65 179 -65 186 0 10 15 14 55 14 l55 0 0 1530 0 1530 515 0
515 0 0 -1725 0 -1724 58 -3 58 -3 -72 -202 -71 -203 303 0 303 0 -54 153
c-29 83 -61 172 -69 196 -9 24 -16 47 -16 52 0 4 24 9 53 11 l52 3 3 1722 2
1723 80 0 80 0 0 -2498 0 -2497 68 -5 69 -5 -83 -235 c-46 -129 -84 -236 -84
-237 0 -2 160 -3 355 -3 199 0 355 4 355 9 0 5 -36 112 -80 237 -44 126 -80
230 -80 231 0 2 25 3 55 3 l55 0 0 2499 0 2499 198 4 c186 4 200 5 253 30 68
31 124 86 153 147 20 44 21 62 24 507 l3 462 97 4 c139 6 220 49 269 142 17
31 22 116 11 186 -3 19 -83 260 -177 535 -95 275 -193 559 -217 630 -25 72
-114 330 -198 575 l-153 445 -1892 3 -1891 2 0 920 0 919 278 3 277 3 63 29
c79 37 152 114 182 192 20 55 21 67 18 693 l-3 636 -28 57 c-35 71 -109 139
-185 170 l-57 23 -2445 2 c-2114 2 -2452 0 -2500 -13z m3910 -2714 l0 -920
-1330 0 -1330 0 0 920 0 920 1330 0 1330 0 0 -920z m-3590 -4954 l0 -363 -68
-22 c-37 -11 -73 -21 -80 -21 -9 0 -12 88 -12 383 0 211 2 386 4 388 2 2 38 3
80 1 l76 -4 0 -362z m1278 283 c152 -45 294 -86 315 -92 20 -5 37 -12 37 -16
0 -3 -130 -48 -288 -99 -328 -107 -826 -270 -847 -279 -13 -4 -15 34 -15 281
l0 286 260 0 261 0 277 -81z m2782 -144 c0 -200 -2 -225 -16 -225 -20 0 -946
271 -957 280 -4 4 102 43 235 87 l243 81 248 1 247 1 0 -225z m590 -91 l0
-316 -25 6 c-13 3 -36 11 -50 16 l-25 10 0 300 0 300 50 0 50 0 0 -316z"/>
</g>
</svg>
